<?xml version="1.0" encoding="UTF-8" standalone="no" ?>
<!DOCTYPE svg PUBLIC "-//W3C//DTD SVG 1.1//EN" "http://www.w3.org/Graphics/SVG/1.1/DTD/svg11.dtd">
<svg xmlns="http://www.w3.org/2000/svg" xmlns:xlink="http://www.w3.org/1999/xlink" version="1.1" width="1080" height="1080" viewBox="0 0 1080 1080" xml:space="preserve">
<desc>Created with Fabric.js 5.2.4</desc>
<defs>
</defs>
<rect x="0" y="0" width="100%" height="100%" fill="transparent"></rect>
<g transform="matrix(1 0 0 1 540 540)" id="5bf1b5e2-39cd-4829-bd1b-9eae86fa72eb"  >
<rect style="stroke: none; stroke-width: 1; stroke-dasharray: none; stroke-linecap: butt; stroke-dashoffset: 0; stroke-linejoin: miter; stroke-miterlimit: 4; fill: rgb(255,255,255); fill-rule: nonzero; opacity: 1; visibility: hidden;" vector-effect="non-scaling-stroke"  x="-540" y="-540" rx="0" ry="0" width="1080" height="1080" />
</g>
<g transform="matrix(1 0 0 1 540 540)" id="c8fb609b-de31-46b1-b1e0-b501a7dbf712"  >
</g>
<g transform="matrix(1.84 0 0 1.84 540 628.47)"  >
<path style="stroke: none; stroke-width: 1; stroke-dasharray: none; stroke-linecap: butt; stroke-dashoffset: 0; stroke-linejoin: miter; stroke-miterlimit: 4; fill: rgb(186,182,200); fill-rule: nonzero; opacity: 1;" vector-effect="non-scaling-stroke"  transform=" translate(-256, -304)" d="M 32 224 L 32 384 L 64 384 L 64 352 L 64 320 L 96 320 L 416 320 L 448 320 L 448 352 L 448 384 L 480 384 L 480 224 L 32 224 z M 416 256 L 448 256 L 448 288 L 416 288 L 416 256 z" stroke-linecap="round" />
</g>
<g transform="matrix(1.84 0 0 1.84 540 540)"  >
<path style="stroke: none; stroke-width: 1; stroke-dasharray: none; stroke-linecap: butt; stroke-dashoffset: 0; stroke-linejoin: miter; stroke-miterlimit: 4; fill: rgb(245,245,245); fill-rule: nonzero; opacity: 1;" vector-effect="non-scaling-stroke"  transform=" translate(-256, -256)" d="M 96 160 L 64 160 L 64 32 L 64 0 L 96 0 L 384 0 L 448 64 L 448 160 L 416 160 L 416 77.3 L 370.7 32 L 96 32 L 96 160 z M 480 224 L 32 224 L 32 384 L 64 384 L 64 352 L 64 320 L 96 320 L 416 320 L 448 320 L 448 352 L 448 384 L 480 384 L 480 224 z M 448 416 L 448 480 L 448 512 L 416 512 L 96 512 L 64 512 L 64 480 L 64 416 L 32 416 L 0 416 L 0 384 L 0 224 L 0 192 L 32 192 L 480 192 L 512 192 L 512 224 L 512 384 L 512 416 L 480 416 L 448 416 z M 96 352 L 96 480 L 416 480 L 416 352 L 96 352 z M 448 256 L 448 288 L 416 288 L 416 256 L 448 256 z" stroke-linecap="round" />
</g>
<g transform="matrix(1 0 0 1 523.59 313.59)"  >
<path style="stroke: none; stroke-width: 1; stroke-dasharray: none; stroke-linecap: butt; stroke-dashoffset: 0; stroke-linejoin: miter; stroke-miterlimit: 4; fill: rgb(245,245,245); fill-rule: nonzero; opacity: 1;" vector-effect="non-scaling-stroke"  transform=" translate(-287.95, -256)" d="M 232 72 L 232 280 C 232 284.4 228.4 288 224 288 C 219.6 288 216 284.4 216 280 L 216 72 C 216 49.9 233.9 32 256 32 L 320 32 C 342.1 32 360 49.9 360 72 L 360 280 C 360 284.4 356.4 288 352 288 C 347.6 288 344 284.4 344 280 L 344 72 C 344 58.7 333.3 48 320 48 L 256 48 C 242.7 48 232 58.7 232 72 z M 192 73.3 L 192 90 C 108.4 117 48 195.5 48 288 L 48 320 L 32 320 L 32 288 C 32 186.5 99.5 100.8 192 73.3 z M 384 90 L 384 73.2 C 475.8 100.5 542.9 185.10000000000002 544 285.5 L 544 287.9 L 544 319.9 L 528 319.9 L 528 285.5 C 527 194.1 466.9 116.8 384 90 z M 537.3 368 L 38.7 368 C 26.2 368 16 378.2 16 390.7 C 16 397.3 18.7 402.09999999999997 22.6 404.59999999999997 C 50.7 422.7 131.9 464 288 464 C 444.1 464 525.3 422.7 553.4 404.6 C 557.1999999999999 402.1 560 397.3 560 390.70000000000005 C 560 378.1 549.8 368.00000000000006 537.3 368.00000000000006 z M 38.7 352 L 537.2 352 C 558.6 352 575.9000000000001 369.3 575.9000000000001 390.7 C 575.9000000000001 401.7 571.2 412.09999999999997 562.0000000000001 418 C 531.3 437.9 447.1 480 288 480 C 128.89999999999998 480 44.69999999999999 437.9 13.899999999999977 418.1 C 4.7 412.1 0 401.7 0 390.7 C 0 369.3 17.3 352 38.7 352 z" stroke-linecap="round" />
</g>
<g transform="matrix(1 0 0 1 523.59 313.59)"  >
<path style="stroke: none; stroke-width: 1; stroke-dasharray: none; stroke-linecap: butt; stroke-dashoffset: 0; stroke-linejoin: miter; stroke-miterlimit: 4; fill: rgb(244,134,104); fill-rule: nonzero; opacity: 1;" vector-effect="non-scaling-stroke"  transform=" translate(-287.95, -256)" d="M 16 390.7 C 16 378.2 26.2 368 38.7 368 L 537.2 368 C 549.8000000000001 368 559.9000000000001 378.2 559.9000000000001 390.7 C 559.9000000000001 397.3 557.2 402.09999999999997 553.3000000000001 404.59999999999997 C 525.3 422.7 444.1 464 288 464 C 131.89999999999998 464 50.69999999999999 422.7 22.600000000000023 404.6 C 18.800000000000022 402.1 16.00000000000002 397.3 16.00000000000002 390.70000000000005 z M 48 288 C 48 195.5 108.4 117 192 90 L 192 81.9 C 199.8 79.4 207.8 77.4 216 75.9 L 216 280 C 216 284.4 219.6 288 224 288 C 228.4 288 232 284.4 232 280 L 232 72 C 232 58.7 242.7 48 256 48 L 320 48 C 333.3 48 344 58.7 344 72 L 344 280 C 344 284.4 347.6 288 352 288 C 356.4 288 360 284.4 360 280 L 360 75.9 C 368.2 77.5 376.2 79.5 384 81.9 L 384 90 C 466.9 116.8 527 194.1 528 285.6 L 528 320 L 48 320 L 48 288 z" stroke-linecap="round" />
</g>
<g transform="matrix(0 0 0 0 0 0)"  >
<g style=""   >
</g>
</g>
<g transform="matrix(NaN NaN NaN NaN 0 0)"  >
<g style=""   >
</g>
</g>
<g transform="matrix(NaN NaN NaN NaN 0 0)"  >
<g style=""   >
</g>
</g>
</svg>