<?xml version="1.0" encoding="UTF-8" standalone="no" ?>
<!DOCTYPE svg PUBLIC "-//W3C//DTD SVG 1.1//EN" "http://www.w3.org/Graphics/SVG/1.1/DTD/svg11.dtd">
<svg xmlns="http://www.w3.org/2000/svg" xmlns:xlink="http://www.w3.org/1999/xlink" version="1.1" width="1080" height="1080" viewBox="0 0 1080 1080" xml:space="preserve">
<desc>Created with Fabric.js 5.2.4</desc>
<defs>
</defs>
<rect x="0" y="0" width="100%" height="100%" fill="transparent"></rect>
<g transform="matrix(1 0 0 1 540 540)" id="77cbdf36-899b-4a9c-84a5-eaae086e9015"  >
<rect style="stroke: none; stroke-width: 1; stroke-dasharray: none; stroke-linecap: butt; stroke-dashoffset: 0; stroke-linejoin: miter; stroke-miterlimit: 4; fill: rgb(255,255,255); fill-rule: nonzero; opacity: 1; visibility: hidden;" vector-effect="non-scaling-stroke"  x="-540" y="-540" rx="0" ry="0" width="1080" height="1080" />
</g>
<g transform="matrix(1 0 0 1 540 540)" id="c0add3a3-7a8d-4ea7-9b8c-f67bc8586e70"  >
</g>
<g transform="matrix(1.98 0 0 1.98 540 540)" id="1ad8a99d-53c6-46b7-b1d9-9e57b1996b33"  >
<path style="stroke: rgb(0,0,0); stroke-width: 0; stroke-dasharray: none; stroke-linecap: butt; stroke-dashoffset: 0; stroke-linejoin: miter; stroke-miterlimit: 4; fill: rgba(249,249,249,.4); fill-rule: nonzero; opacity: 1;" vector-effect="non-scaling-stroke"  transform=" translate(-256, -256)" d="M 80 160 L 64 160 L 64 64 C 64 28.7 92.7 0 128 0 L 357.5 0 C 374.5 0 390.8 6.7 402.8 18.7 L 429.3 45.2 C 441.3 57.2 448 73.5 448 90.5 L 448 160 L 432 160 L 432 90.5 C 432 77.8 426.9 65.6 417.9 56.6 L 391.4 30.1 C 382.4 21.1 370.2 16 357.5 16 L 128 16 C 101.5 16 80 37.5 80 64 L 80 160 z M 448 208 L 64 208 C 37.5 208 16 229.5 16 256 L 16 384 C 16 392.8 23.2 400 32 400 L 64 400 L 64 352 C 64 334.3 78.3 320 96 320 L 416 320 C 433.7 320 448 334.3 448 352 L 448 400 L 480 400 C 488.8 400 496 392.8 496 384 L 496 256 C 496 229.5 474.5 208 448 208 z M 448 416 L 448 480 C 448 497.7 433.7 512 416 512 L 96 512 C 78.3 512 64 497.7 64 480 L 64 416 L 32 416 C 14.3 416 0 401.7 0 384 L 0 256 C 0 220.7 28.7 192 64 192 L 448 192 C 483.3 192 512 220.7 512 256 L 512 384 C 512 401.7 497.7 416 480 416 L 448 416 z M 96 336 C 87.2 336 80 343.2 80 352 L 80 480 C 80 488.8 87.2 496 96 496 L 416 496 C 424.8 496 432 488.8 432 480 L 432 352 C 432 343.2 424.8 336 416 336 L 96 336 z M 432 256 C 440.8365559972927 256 448 263.1634440027073 448 272 C 448 280.8365559972927 440.8365559972927 288 432 288 C 423.1634440027073 288 416 280.8365559972927 416 272 C 416 263.1634440027073 423.1634440027073 256 432 256 z" stroke-linecap="round" />
</g>
<g transform="matrix(NaN NaN NaN NaN 0 0)"  >
<g style=""   >
</g>
</g>
<g transform="matrix(NaN NaN NaN NaN 0 0)"  >
<g style=""   >
</g>
</g>
<g transform="matrix(1 0 0 1 728.55 769.89)" id="76432bfe-2493-4a54-9173-28c5287a1077"  >
<path style="stroke: rgb(0,0,0); stroke-width: 0; stroke-dasharray: none; stroke-linecap: butt; stroke-dashoffset: 0; stroke-linejoin: miter; stroke-miterlimit: 4; fill: rgb(0,128,0); fill-rule: nonzero; opacity: 1;" vector-effect="non-scaling-stroke"  transform=" translate(-256, -256)" d="M 256 512 C 397.3848959566831 512 512 397.3848959566831 512 256 C 512 114.61510404331688 397.3848959566831 0 256 0 C 114.61510404331688 0 0 114.61510404331688 0 256 C 0 397.3848959566831 114.61510404331688 512 256 512 z M 232 368 L 232 344 L 232 280 L 168 280 L 144 280 L 144 232 L 168 232 L 232 232 L 232 168 L 232 144 L 280 144 L 280 168 L 280 232 L 344 232 L 368 232 L 368 280 L 344 280 L 280 280 L 280 344 L 280 368 L 232 368 z" stroke-linecap="round" />
</g>
<g transform="matrix(NaN NaN NaN NaN 0 0)"  >
<g style=""   >
</g>
</g>
<g transform="matrix(NaN NaN NaN NaN 0 0)"  >
<g style=""   >
</g>
</g>
</svg>