<?xml version="1.0" encoding="UTF-8" standalone="no"?>
<!DOCTYPE svg PUBLIC "-//W3C//DTD SVG 1.1//EN" "http://www.w3.org/Graphics/SVG/1.1/DTD/svg11.dtd">
<svg xmlns="http://www.w3.org/2000/svg" xmlns:xlink="http://www.w3.org/1999/xlink" version="1.1"
	width="1080" height="1080" viewBox="0 0 1080 1080" xml:space="preserve">
<desc>Created with Fabric.js 5.2.4</desc>
<defs>
</defs>
<rect x="0" y="0" width="100%" height="100%" fill="transparent"></rect>
<g transform="matrix(1 0 0 1 540 540)" id="ab4cc7d2-5177-41f3-b660-320b0ed7e23c"  >
</g>
<g transform="matrix(1 0 0 1 540 540)" id="b1f51d3c-c503-4803-8dfa-23612aab5e0c"  >
<rect style="stroke: none; stroke-width: 1; stroke-dasharray: none; stroke-linecap: butt; stroke-dashoffset: 0; stroke-linejoin: miter; stroke-miterlimit: 4; fill: rgb(255,255,255); fill-rule: nonzero; opacity: 1; visibility: hidden;" vector-effect="non-scaling-stroke"  x="-540" y="-540" rx="0" ry="0" width="1080" height="1080" />
</g>
<g transform="matrix(2.03 0 0 2.03 540 540)"  >
<path style="stroke: rgb(0,0,0); stroke-width: 0; stroke-dasharray: none; stroke-linecap: butt; stroke-dashoffset: 0; stroke-linejoin: miter; stroke-miterlimit: 4; fill: rgb(249,249,249); fill-rule: nonzero; opacity: 1;" vector-effect="non-scaling-stroke"  transform=" translate(-256, -256)" d="M 80 160 L 64 160 L 64 64 C 64 28.7 92.7 0 128 0 L 357.5 0 C 374.5 0 390.8 6.7 402.8 18.7 L 429.3 45.2 C 441.3 57.2 448 73.5 448 90.5 L 448 160 L 432 160 L 432 90.5 C 432 77.8 426.9 65.6 417.9 56.6 L 391.4 30.1 C 382.4 21.1 370.2 16 357.5 16 L 128 16 C 101.5 16 80 37.5 80 64 L 80 160 z M 448 208 L 64 208 C 37.5 208 16 229.5 16 256 L 16 384 C 16 392.8 23.2 400 32 400 L 64 400 L 64 352 C 64 334.3 78.3 320 96 320 L 416 320 C 433.7 320 448 334.3 448 352 L 448 400 L 480 400 C 488.8 400 496 392.8 496 384 L 496 256 C 496 229.5 474.5 208 448 208 z M 448 416 L 448 480 C 448 497.7 433.7 512 416 512 L 96 512 C 78.3 512 64 497.7 64 480 L 64 416 L 32 416 C 14.3 416 0 401.7 0 384 L 0 256 C 0 220.7 28.7 192 64 192 L 448 192 C 483.3 192 512 220.7 512 256 L 512 384 C 512 401.7 497.7 416 480 416 L 448 416 z M 96 336 C 87.2 336 80 343.2 80 352 L 80 480 C 80 488.8 87.2 496 96 496 L 416 496 C 424.8 496 432 488.8 432 480 L 432 352 C 432 343.2 424.8 336 416 336 L 96 336 z M 432 256 C 440.8365559972927 256 448 263.1634440027073 448 272 C 448 280.8365559972927 440.8365559972927 288 432 288 C 423.1634440027073 288 416 280.8365559972927 416 272 C 416 263.1634440027073 423.1634440027073 256 432 256 z" stroke-linecap="round" />
</g>
<g transform="matrix(1.14 0 0 1.14 540.63 540.62)"  >
<g style="" vector-effect="non-scaling-stroke"   >
		<g transform="matrix(1 0 0 1 0 0)"  >
<path style="stroke: none; stroke-width: 1; stroke-dasharray: none; stroke-linecap: butt; stroke-dashoffset: 0; stroke-linejoin: miter; stroke-miterlimit: 4; fill: rgb(255,131,0); fill-rule: nonzero; opacity: 0.4;" vector-effect="non-scaling-stroke"  transform=" translate(-256, -256)" d="M 0 256 C 0 397.3848959566831 114.61510404331688 512 256 512 C 397.3848959566831 512 512 397.3848959566831 512 256 C 512 114.61510404331688 397.3848959566831 0 256 0 C 114.61510404331688 0 0 114.61510404331685 0 255.99999999999997 z M 169.4 166.5 C 169.5 166.1 169.70000000000002 165.7 169.8 165.3 C 177.70000000000002 143 198.9 128 222.60000000000002 128 L 280.90000000000003 128 C 315.8 128 344.00000000000006 156.3 344.00000000000006 191.1 C 344.00000000000006 213.7 331.90000000000003 234.6 312.30000000000007 245.89999999999998 C 301.50000000000006 252.09999999999997 290.80000000000007 258.29999999999995 280.00000000000006 264.4 C 279.80000000000007 277.4 269.1000000000001 288 256.00000000000006 288 C 242.70000000000005 288 232.00000000000006 277.3 232.00000000000006 264 C 232.00000000000006 259.5 232.00000000000006 255 232.00000000000006 250.5 C 232.00000000000006 241.8 236.60000000000005 233.9 244.10000000000005 229.7 C 258.90000000000003 221.2 273.70000000000005 212.7 288.40000000000003 204.29999999999998 C 290.8 202.89999999999998 292.70000000000005 200.99999999999997 294.00000000000006 198.79999999999998 C 294.70000000000005 197.7 295.20000000000005 196.39999999999998 295.50000000000006 195.2 C 295.70000000000005 194.6 295.80000000000007 193.89999999999998 295.90000000000003 193.2 C 295.90000000000003 192.89999999999998 296.00000000000006 192.5 296.00000000000006 192.2 C 296.00000000000006 191.89999999999998 296.00000000000006 191.5 296.00000000000006 191.1 C 296.00000000000006 190.6 296.00000000000006 190.1 295.90000000000003 189.6 C 295.8 189.1 295.8 188.6 295.70000000000005 188.1 C 295.50000000000006 187.1 295.20000000000005 186.2 294.80000000000007 185.29999999999998 C 294.00000000000006 183.49999999999997 292.9000000000001 181.89999999999998 291.6000000000001 180.49999999999997 C 288.9000000000001 177.79999999999998 285.1000000000001 176.09999999999997 280.9000000000001 176.09999999999997 L 222.60000000000008 176.09999999999997 C 219.20000000000007 176.09999999999997 216.20000000000007 178.19999999999996 215.10000000000008 181.39999999999998 C 215.00000000000009 181.79999999999998 214.80000000000007 182.2 214.70000000000007 182.59999999999997 C 210.30000000000007 195.09999999999997 196.50000000000009 201.59999999999997 184.10000000000008 197.19999999999996 C 171.70000000000007 192.79999999999995 165.10000000000008 178.99999999999997 169.50000000000009 166.59999999999997 z M 288 352 C 288 352.3 288 352.6 288 352 z" stroke-linecap="round" />
</g>
		<g transform="matrix(1 0 0 1 -0.04 -0.05)"  >
<path style="stroke: none; stroke-width: 1; stroke-dasharray: none; stroke-linecap: butt; stroke-dashoffset: 0; stroke-linejoin: miter; stroke-miterlimit: 4; fill: rgb(255,131,0); fill-rule: nonzero; opacity: 1;" vector-effect="non-scaling-stroke"  transform=" translate(-255.96, -255.95)" d="M 222.6 128 C 198.9 128 177.8 142.9 169.8 165.3 L 169.4 166.5 C 165 179 171.5 192.7 184 197.1 C 196.5 201.5 210.2 195 214.6 182.5 L 215 181.3 C 216.1 178.10000000000002 219.2 176 222.5 176 L 280.8 176 C 289.2 176 295.90000000000003 182.8 295.90000000000003 191.1 C 295.90000000000003 196.5 293.00000000000006 201.5 288.3 204.2 L 244 229.6 C 236.5 233.9 231.9 241.79999999999998 231.9 250.4 L 231.9 263.9 C 231.9 277.2 242.6 287.9 255.9 287.9 C 269 287.9 279.7 277.4 279.9 264.29999999999995 L 312.2 245.79999999999995 C 331.8 234.49999999999994 343.9 213.59999999999997 343.9 190.99999999999994 C 343.9 156.09999999999994 315.59999999999997 127.89999999999995 280.79999999999995 127.89999999999995 L 222.49999999999994 127.89999999999995 z M 256 384 C 273.6731119945854 384 288 369.6731119945854 288 352 C 288 334.3268880054146 273.6731119945854 320 256 320 C 238.32688800541462 320 224 334.3268880054146 224 352 C 224 369.6731119945854 238.32688800541462 384 256 384 z" stroke-linecap="round" />
</g>
</g>
</g>
</svg>